<svg width="457" height="77" viewBox="0 0 457 77" fill="none" xmlns="http://www.w3.org/2000/svg">
<path d="M7.448 4.536H60.824C62.872 4.536 64.376 4.792 65.336 5.304C66.296 5.752 66.936 6.488 67.256 7.512C67.576 8.536 67.736 9.88 67.736 11.544C67.736 13.208 67.576 14.552 67.256 15.576C66.936 16.536 66.392 17.208 65.624 17.592C64.472 18.168 62.84 18.456 60.728 18.456H42.392V66.744C42.392 68.216 42.328 69.304 42.2 70.008C42.136 70.712 41.848 71.544 41.336 72.504C40.888 73.4 40.056 74.04 38.84 74.424C37.624 74.808 36.024 75 34.04 75C32.056 75 30.456 74.808 29.24 74.424C28.088 74.04 27.256 73.4 26.744 72.504C26.296 71.544 26.008 70.712 25.88 70.008C25.816 69.24 25.784 68.12 25.784 66.648V18.456H7.352C5.304 18.456 3.8 18.232 2.84 17.784C1.88 17.272 1.24 16.504 0.92 15.48C0.6 14.456 0.44 13.112 0.44 11.448C0.44 9.784 0.6 8.472 0.92 7.512C1.24 6.488 1.784 5.784 2.552 5.4C3.704 4.824 5.336 4.536 7.448 4.536ZM60.0875 49.752C60.0875 42.072 62.7755 35.736 68.1515 30.744C73.5275 25.752 79.6715 23.256 86.5835 23.256C93.4955 23.256 99.6075 25.752 104.92 30.744C110.232 35.672 112.888 41.976 112.888 49.656C112.888 54.968 111.512 59.704 108.76 63.864C106.008 67.96 102.648 71 98.6795 72.984C94.7755 74.904 90.7115 75.864 86.4875 75.864C82.2635 75.864 78.1675 74.84 74.1995 72.792C70.2315 70.68 66.8715 67.608 64.1195 63.576C61.4315 59.48 60.0875 54.872 60.0875 49.752ZM80.1515 56.664C82.1995 58.2 84.2795 58.968 86.3915 58.968C88.5035 58.968 90.6155 58.168 92.7275 56.568C94.8395 54.968 95.8955 52.6 95.8955 49.464C95.8955 46.328 94.9035 43.992 92.9195 42.456C90.9355 40.92 88.7915 40.152 86.4875 40.152C84.1835 40.152 82.0395 40.952 80.0555 42.552C78.0715 44.152 77.0795 46.52 77.0795 49.656C77.0795 52.728 78.1035 55.064 80.1515 56.664ZM148.85 49.656L161.618 60.216C163.218 61.56 164.21 62.584 164.594 63.288C165.042 63.992 165.266 64.664 165.266 65.304C165.266 66.84 164.274 68.92 162.29 71.544C160.114 74.232 158.194 75.576 156.53 75.576C155.122 75.576 153.17 74.648 150.674 72.792L149.714 72.12C148.242 70.904 145.97 68.792 142.898 65.784C139.826 62.712 137.49 60.536 135.89 59.256V66.648C135.89 68.12 135.826 69.24 135.698 70.008C135.634 70.712 135.346 71.544 134.834 72.504C134.002 74.168 131.538 75 127.442 75C123.41 75 120.946 74.136 120.05 72.408C119.602 71.448 119.314 70.616 119.186 69.912C119.122 69.144 119.09 68.024 119.09 66.552V9.048C119.09 7.576 119.122 6.488 119.186 5.784C119.314 5.016 119.602 4.152 120.05 3.192C120.946 1.464 123.442 0.599997 127.538 0.599997C130.61 0.599997 132.786 1.144 134.066 2.232C135.154 3.128 135.73 4.536 135.794 6.456C135.858 7.032 135.89 7.928 135.89 9.144V39.576C137.042 38.616 138.77 36.984 141.074 34.68C143.442 32.376 145.202 30.744 146.354 29.784L147.506 29.016C149.746 27.288 151.666 26.424 153.266 26.424C154.866 26.424 156.69 27.736 158.738 30.36C160.85 32.92 161.906 34.936 161.906 36.408C161.906 37.88 160.722 39.608 158.354 41.592L148.85 49.656ZM216.421 43.704C216.421 47.608 215.429 50.52 213.445 52.44C211.525 54.296 209.381 55.224 207.013 55.224H184.261C184.261 57.016 185.317 58.52 187.429 59.736C189.541 60.952 191.653 61.56 193.765 61.56C197.477 61.56 200.389 61.176 202.501 60.408L203.557 60.024C205.093 59.32 206.373 58.968 207.397 58.968C209.445 58.968 211.205 60.408 212.677 63.288C213.509 65.016 213.925 66.488 213.925 67.704C213.925 73.4 207.109 76.248 193.477 76.248C188.741 76.248 184.517 75.448 180.805 73.848C177.157 72.184 174.309 70.008 172.261 67.32C168.229 62.136 166.213 56.344 166.213 49.944C166.213 41.88 168.805 35.448 173.989 30.648C179.237 25.784 185.765 23.352 193.573 23.352C202.469 23.352 208.997 26.488 213.156 32.76C215.333 36.088 216.421 39.736 216.421 43.704ZM196.165 46.488C198.597 46.488 199.813 45.464 199.813 43.416C199.813 41.944 199.237 40.76 198.085 39.864C196.997 38.968 195.397 38.52 193.285 38.52C191.237 38.52 189.189 39.384 187.141 41.112C185.093 42.776 184.069 44.568 184.069 46.488H196.165ZM250.812 24.408C257.212 24.408 262.524 26.872 266.748 31.8C271.036 36.664 273.18 42.616 273.18 49.656V66.552C273.18 68.024 273.116 69.144 272.988 69.912C272.924 70.616 272.668 71.416 272.22 72.312C271.324 74.04 268.828 74.904 264.732 74.904C260.188 74.904 257.564 73.72 256.86 71.352C256.476 70.264 256.284 68.632 256.284 66.456V49.56C256.284 46.936 255.516 44.888 253.98 43.416C252.508 41.944 250.492 41.208 247.932 41.208C245.436 41.208 243.388 41.976 241.788 43.512C240.252 45.048 239.484 47.064 239.484 49.56V66.552C239.484 68.024 239.42 69.144 239.292 69.912C239.228 70.616 238.94 71.416 238.428 72.312C237.596 74.04 235.132 74.904 231.036 74.904C227.004 74.904 224.54 74.04 223.644 72.312C223.196 71.352 222.908 70.52 222.78 69.816C222.716 69.048 222.684 67.928 222.684 66.456V32.472C222.684 31.064 222.716 30.008 222.78 29.304C222.908 28.536 223.228 27.704 223.74 26.808C224.636 25.208 227.1 24.408 231.132 24.408C235.036 24.408 237.436 25.144 238.332 26.616C238.972 27.704 239.292 29.016 239.292 30.552C239.548 30.104 240.124 29.464 241.02 28.632C241.916 27.8 242.78 27.128 243.612 26.616C245.788 25.144 248.188 24.408 250.812 24.408ZM324.391 7.224C324.903 6.264 325.767 5.592 326.983 5.20799C328.199 4.824 329.735 4.632 331.591 4.632C333.447 4.632 334.919 4.792 336.007 5.112C337.095 5.432 337.927 5.816 338.503 6.264C339.079 6.712 339.527 7.352 339.847 8.184C340.167 9.272 340.327 10.936 340.327 13.176V66.456C340.327 67.928 340.263 69.048 340.135 69.816C340.071 70.52 339.783 71.352 339.271 72.312C338.375 74.04 335.879 74.904 331.783 74.904C327.303 74.904 324.679 73.72 323.911 71.352C323.527 70.264 323.335 68.6 323.335 66.36V46.872H297.895V66.456C297.895 67.928 297.831 69.048 297.703 69.816C297.639 70.52 297.351 71.352 296.839 72.312C295.943 74.04 293.447 74.904 289.351 74.904C284.871 74.904 282.247 73.72 281.479 71.352C281.095 70.264 280.903 68.6 280.903 66.36V13.08C280.903 11.608 280.935 10.52 280.999 9.816C281.127 9.048 281.447 8.184 281.959 7.224C282.855 5.496 285.351 4.632 289.447 4.632C293.927 4.632 296.583 5.816 297.415 8.184C297.735 9.272 297.895 10.936 297.895 13.176V32.76H323.335V13.08C323.335 11.608 323.367 10.52 323.431 9.816C323.559 9.048 323.879 8.184 324.391 7.224ZM370.492 74.808C364.028 74.808 358.652 72.376 354.364 67.512C350.14 62.584 348.028 56.6 348.028 49.56V32.76C348.028 31.224 348.06 30.104 348.124 29.4C348.252 28.696 348.54 27.864 348.988 26.904C349.884 25.176 352.38 24.312 356.476 24.312C360.956 24.312 363.58 25.528 364.348 27.96C364.732 28.984 364.924 30.616 364.924 32.856V49.656C364.924 52.28 365.66 54.328 367.132 55.8C368.668 57.272 370.684 58.008 373.18 58.008C375.74 58.008 377.788 57.24 379.324 55.704C380.924 54.168 381.724 52.152 381.724 49.656V32.664C381.724 31.192 381.756 30.104 381.82 29.4C381.948 28.632 382.268 27.768 382.78 26.808C383.612 25.144 386.076 24.312 390.172 24.312C394.204 24.312 396.668 25.176 397.564 26.904C398.012 27.864 398.268 28.728 398.332 29.496C398.46 30.2 398.524 31.288 398.524 32.76V66.744C398.524 68.152 398.46 69.24 398.332 70.008C398.268 70.712 397.98 71.512 397.468 72.408C396.508 74.072 394.044 74.904 390.076 74.904C386.172 74.904 383.772 74.136 382.876 72.6C382.236 71.512 381.916 70.2 381.916 68.664C381.66 69.112 381.084 69.752 380.188 70.584C379.292 71.416 378.428 72.12 377.596 72.696C375.42 74.104 373.052 74.808 370.492 74.808ZM433.99 24.504C439.686 24.504 444.902 27.032 449.638 32.088C454.438 37.144 456.838 43.032 456.838 49.752C456.838 56.408 454.47 62.264 449.734 67.32C444.998 72.312 439.91 74.808 434.47 74.808C429.03 74.808 425.158 73.272 422.854 70.2C422.342 73.336 419.59 74.904 414.598 74.904C410.566 74.904 408.102 74.04 407.206 72.312C406.758 71.352 406.47 70.52 406.342 69.816C406.278 69.048 406.246 67.928 406.246 66.456V9.144C406.246 7.672 406.278 6.584 406.342 5.88C406.47 5.112 406.758 4.27999 407.206 3.384C408.102 1.65599 410.598 0.791994 414.694 0.791994C418.726 0.791994 421.158 1.65599 421.99 3.384C422.502 4.344 422.79 5.208 422.854 5.976C422.982 6.68 423.046 7.768 423.046 9.23999V29.208C425.606 26.072 429.254 24.504 433.99 24.504ZM425.542 55.512C427.142 57.24 429.126 58.104 431.494 58.104C433.862 58.104 435.878 57.24 437.542 55.512C439.206 53.784 440.038 51.864 440.038 49.752C440.038 47.64 439.27 45.72 437.734 43.992C436.198 42.2 434.15 41.304 431.59 41.304C429.03 41.304 426.982 42.2 425.446 43.992C423.974 45.784 423.238 47.736 423.238 49.848C423.238 51.896 424.006 53.784 425.542 55.512Z" fill="black"/>
</svg>
